<mxfile host="app.diagrams.net" modified="2022-04-30T04:15:35.452Z" agent="5.0 (Windows NT 10.0; Win64; x64) AppleWebKit/537.36 (KHTML, like Gecko) Chrome/101.0.4951.41 Safari/537.36" etag="DpAxhEEBFK_UhXbopSBw" version="17.4.6" type="github">
  <diagram id="msvG2DhZHIio5AzFItvz" name="Page-1">
    <mxGraphModel dx="2062" dy="1122" grid="1" gridSize="10" guides="1" tooltips="1" connect="1" arrows="1" fold="1" page="1" pageScale="1" pageWidth="827" pageHeight="1169" math="0" shadow="0">
      <root>
        <mxCell id="0" />
        <mxCell id="1" parent="0" />
        <mxCell id="VIM10gxKYm1hWkxN11jK-9" value="" style="rounded=0;whiteSpace=wrap;html=1;fillColor=#f5f5f5;fontColor=#333333;strokeColor=#666666;" vertex="1" parent="1">
          <mxGeometry x="130" y="170" width="870" height="660" as="geometry" />
        </mxCell>
        <mxCell id="VIM10gxKYm1hWkxN11jK-10" value="源端口号（16位）" style="rounded=0;whiteSpace=wrap;html=1;" vertex="1" parent="1">
          <mxGeometry x="130" y="180" width="430" height="50" as="geometry" />
        </mxCell>
        <mxCell id="VIM10gxKYm1hWkxN11jK-11" value="目标端口号（16位）" style="rounded=0;whiteSpace=wrap;html=1;" vertex="1" parent="1">
          <mxGeometry x="570" y="180" width="430" height="50" as="geometry" />
        </mxCell>
        <mxCell id="VIM10gxKYm1hWkxN11jK-12" value="序列号（32位）" style="rounded=0;whiteSpace=wrap;html=1;fillColor=#d5e8d4;strokeColor=#82b366;" vertex="1" parent="1">
          <mxGeometry x="130" y="240" width="870" height="80" as="geometry" />
        </mxCell>
        <mxCell id="VIM10gxKYm1hWkxN11jK-13" value="应答号（32位）" style="rounded=0;whiteSpace=wrap;html=1;fillColor=#dae8fc;strokeColor=#6c8ebf;" vertex="1" parent="1">
          <mxGeometry x="130" y="340" width="870" height="80" as="geometry" />
        </mxCell>
        <mxCell id="VIM10gxKYm1hWkxN11jK-14" value="首部长度（4位）" style="rounded=0;whiteSpace=wrap;html=1;" vertex="1" parent="1">
          <mxGeometry x="130" y="440" width="140" height="80" as="geometry" />
        </mxCell>
        <mxCell id="VIM10gxKYm1hWkxN11jK-15" value="保留（6位）" style="rounded=0;whiteSpace=wrap;html=1;" vertex="1" parent="1">
          <mxGeometry x="270" y="440" width="170" height="80" as="geometry" />
        </mxCell>
        <mxCell id="VIM10gxKYm1hWkxN11jK-17" value="A&lt;br&gt;C&lt;br&gt;K" style="rounded=0;whiteSpace=wrap;html=1;fillColor=#e1d5e7;strokeColor=#9673a6;" vertex="1" parent="1">
          <mxGeometry x="460" y="440" width="20" height="80" as="geometry" />
        </mxCell>
        <mxCell id="VIM10gxKYm1hWkxN11jK-18" value="P&lt;br&gt;S&lt;br&gt;H" style="rounded=0;whiteSpace=wrap;html=1;" vertex="1" parent="1">
          <mxGeometry x="480" y="440" width="20" height="80" as="geometry" />
        </mxCell>
        <mxCell id="VIM10gxKYm1hWkxN11jK-21" value="S&lt;br&gt;Y&lt;br&gt;N" style="rounded=0;whiteSpace=wrap;html=1;fillColor=#e1d5e7;strokeColor=#9673a6;" vertex="1" parent="1">
          <mxGeometry x="520" y="440" width="20" height="80" as="geometry" />
        </mxCell>
        <mxCell id="VIM10gxKYm1hWkxN11jK-22" value="F&lt;br&gt;I&lt;br&gt;N" style="rounded=0;whiteSpace=wrap;html=1;fillColor=#e1d5e7;strokeColor=#9673a6;" vertex="1" parent="1">
          <mxGeometry x="540" y="440" width="20" height="80" as="geometry" />
        </mxCell>
        <mxCell id="VIM10gxKYm1hWkxN11jK-23" value="窗口大小（16位）" style="rounded=0;whiteSpace=wrap;html=1;" vertex="1" parent="1">
          <mxGeometry x="570" y="440" width="430" height="80" as="geometry" />
        </mxCell>
        <mxCell id="VIM10gxKYm1hWkxN11jK-25" value="U&lt;br&gt;R&lt;br&gt;G" style="rounded=0;whiteSpace=wrap;html=1;" vertex="1" parent="1">
          <mxGeometry x="440" y="440" width="20" height="80" as="geometry" />
        </mxCell>
        <mxCell id="VIM10gxKYm1hWkxN11jK-26" value="R&lt;br&gt;S&lt;br&gt;T" style="rounded=0;whiteSpace=wrap;html=1;fillColor=#e1d5e7;strokeColor=#9673a6;" vertex="1" parent="1">
          <mxGeometry x="500" y="440" width="20" height="80" as="geometry" />
        </mxCell>
        <mxCell id="VIM10gxKYm1hWkxN11jK-27" value="检验和（16位）" style="rounded=0;whiteSpace=wrap;html=1;" vertex="1" parent="1">
          <mxGeometry x="130" y="545" width="430" height="80" as="geometry" />
        </mxCell>
        <mxCell id="VIM10gxKYm1hWkxN11jK-28" value="紧急指针（16位）" style="rounded=0;whiteSpace=wrap;html=1;" vertex="1" parent="1">
          <mxGeometry x="570" y="545" width="430" height="80" as="geometry" />
        </mxCell>
        <mxCell id="VIM10gxKYm1hWkxN11jK-29" value="选项（长度可变）" style="rounded=0;whiteSpace=wrap;html=1;fontFamily=Helvetica;" vertex="1" parent="1">
          <mxGeometry x="130" y="640" width="870" height="60" as="geometry" />
        </mxCell>
        <mxCell id="VIM10gxKYm1hWkxN11jK-30" value="数据" style="rounded=0;whiteSpace=wrap;html=1;fontFamily=Helvetica;fillColor=#ffe6cc;strokeColor=#d79b00;" vertex="1" parent="1">
          <mxGeometry x="130" y="710" width="870" height="110" as="geometry" />
        </mxCell>
      </root>
    </mxGraphModel>
  </diagram>
</mxfile>
